<svg xmlns="http://www.w3.org/2000/svg" width="34.125" height="30" viewBox="0 0 34.125 30"><defs><style>.a{fill:none;}.b,.c{stroke:none;}.c{fill:#fff;}</style></defs><g transform="translate(366.5 -462)"><g class="a" transform="translate(-371 452)"><path class="b" d="M35.663,13.037h0a10.163,10.163,0,0,0-14.063-.3A9.811,9.811,0,0,0,14.663,10a10.222,10.222,0,0,0-7.2,2.962,10.231,10.231,0,0,0,0,14.4l.75.75L21.563,40,34.875,28.263l.787-.788a10.276,10.276,0,0,0,0-14.437Z"/><path class="c" d="M 14.66250419616699 12 C 12.49744033813477 12 10.44054412841797 12.84652709960938 8.869739532470703 14.38370513916016 C 7.341533660888672 15.91558456420898 6.500003814697266 17.96747398376465 6.500003814697266 20.16250038146973 C 6.500003814697266 22.36087989807129 7.344074249267578 24.4156494140625 8.876712799072266 25.94828987121582 L 9.585708618164062 26.65728569030762 L 21.56906127929688 37.32785415649414 L 33.50524520874023 26.80384063720703 L 34.24829483032227 26.06078910827637 C 35.80315399169922 24.50592994689941 36.62500381469727 22.49226951599121 36.62500381469727 20.23749923706055 C 36.62500381469727 18.0412769317627 35.78264617919922 15.98843765258789 34.25284576416016 14.45626831054688 C 32.6906623840332 12.91025924682617 30.63052940368652 12.0588493347168 28.45147323608398 12.05881881713867 C 26.40645408630371 12.05881881713867 24.45540428161621 12.82138061523438 22.95771408081055 14.20603942871094 L 21.57419395446777 15.48516082763672 L 20.21494293212891 14.18027114868164 C 18.72916412353516 12.75392913818359 16.80916404724121 12 14.66250419616699 12 M 14.66250419616699 10 C 17.32500457763672 10 19.72500419616699 10.9375 21.60000419616699 12.73749923706055 C 23.53315734863281 10.95024490356445 25.98946762084961 10.05878829956055 28.45159530639648 10.05882263183594 C 31.05215263366699 10.05885696411133 33.65918350219727 11.05344390869141 35.66250228881836 13.03749847412109 C 37.57500457763672 14.95000076293945 38.62500381469727 17.5 38.62500381469727 20.23749923706055 C 38.62500381469727 23.01250076293945 37.61250305175781 25.52499961853027 35.66250228881836 27.47500038146973 L 34.87500381469727 28.26250076293945 L 21.56250381469727 40 L 8.212505340576172 28.11249923706055 L 7.462505340576172 27.36249923706055 C 5.549995422363281 25.45000076293945 4.500003814697266 22.89999961853027 4.500003814697266 20.16250038146973 C 4.500003814697266 17.42499923706055 5.549995422363281 14.875 7.462505340576172 12.96250152587891 C 9.412502288818359 11.04999923706055 11.96250343322754 10 14.66250419616699 10 Z"/></g></g></svg>