<svg xmlns="http://www.w3.org/2000/svg" xmlns:xlink="http://www.w3.org/1999/xlink" width="375" height="375" viewBox="0 0 375 375"><defs><style>.a{fill:#fff;stroke:#707070;}.b{clip-path:url(#a);}.c{opacity:0.7;clip-path:url(#b);}.d{fill:#a182ba;}.e{fill:#e81b26;}.f{fill:#00acea;}.g{fill:#e8008b;}.h{fill:#fe0;}.i{fill:#8ac13e;}</style><clipPath id="a"><rect class="a" width="375" height="375"/></clipPath><clipPath id="b"><rect class="a" width="375" height="375" transform="translate(0 0)"/></clipPath></defs><g transform="translate(162 90)"><g class="b" transform="translate(-162 -90)"><g class="c"><rect class="d" width="4.94" height="2.47" transform="translate(369.736 367.491) rotate(23.556)"/><rect class="d" width="2.709" height="1.354" transform="translate(368.182 266.075) rotate(-105.444)"/><rect class="d" width="3.622" height="1.811" transform="matrix(-0.285, 0.959, -0.959, -0.285, 361.556, 134.3)"/><rect class="d" width="4.648" height="2.324" transform="translate(373.532 115.828) rotate(-150.444)"/><rect class="d" width="2.955" height="1.477" transform="matrix(-0.793, -0.61, 0.61, -0.793, 368.633, 104.271)"/><rect class="d" width="3.001" height="1.5" transform="matrix(-0.623, 0.782, -0.782, -0.623, 358.019, 312.21)"/><rect class="d" width="4.808" height="2.403" transform="matrix(0.803, 0.596, -0.596, 0.803, 347.501, 234.855)"/><rect class="d" width="4.732" height="2.366" transform="translate(340.88 175.824) rotate(-35.444)"/><rect class="d" width="4.972" height="2.486" transform="translate(336.696 178.254) rotate(-98.444)"/><rect class="d" width="4.067" height="2.033" transform="translate(325.834 144.44) rotate(-87.444)"/><rect class="d" width="4.53" height="2.265" transform="matrix(-0.725, -0.689, 0.689, -0.725, 316.021, 265.053)"/><rect class="d" width="5.071" height="2.535" transform="translate(324.829 113.682) rotate(154.556)"/><rect class="d" width="3.418" height="1.709" transform="matrix(0.954, -0.3, 0.3, 0.954, 303.742, 148.454)"/><rect class="d" width="3.196" height="1.598" transform="translate(282.479 310.64) rotate(-98.444)"/><rect class="d" width="3.849" height="1.924" transform="matrix(0.714, -0.7, 0.7, 0.714, 284.731, 264.67)"/><rect class="d" width="3.925" height="1.962" transform="translate(284.209 86.188) rotate(67.556)"/><rect class="d" width="2.777" height="1.388" transform="matrix(0.649, 0.761, -0.761, 0.649, 281.414, 34.497)"/><rect class="d" width="2.759" height="1.379" transform="translate(279.255 344.099) rotate(88.556)"/><rect class="d" width="2.775" height="1.387" transform="translate(268.923 332.683) rotate(55.556)"/><rect class="d" width="4.023" height="2.011" transform="translate(267.801 147.827) rotate(-56.444)"/><rect class="d" width="3.167" height="1.583" transform="translate(276.86 114.811) rotate(-80.444)"/><rect class="d" width="4.697" height="2.348" transform="translate(252.359 326.867) rotate(-20.444)"/><rect class="d" width="2.809" height="1.404" transform="translate(259.983 320.058) rotate(-89.444)"/><rect class="d" width="3.046" height="1.523" transform="translate(253.904 278.967) rotate(87.556)"/><rect class="d" width="3.264" height="1.632" transform="translate(249.844 240.219) rotate(-172.444)"/><rect class="d" width="2.957" height="1.478" transform="translate(259.936 214.158) rotate(-115.444)"/><rect class="d" width="2.966" height="1.483" transform="translate(244.483 353.007) rotate(-69.444)"/><rect class="d" width="3.159" height="1.579" transform="matrix(0.973, -0.233, 0.233, 0.973, 240.44, 308.522)"/><rect class="d" width="4.597" height="2.298" transform="translate(240.7 62.286) rotate(119.556)"/><rect class="d" width="4.796" height="2.398" transform="matrix(-0.523, 0.852, -0.852, -0.523, 239.807, 57.753)"/><rect class="d" width="3.613" height="1.807" transform="translate(220.426 353.997) rotate(-157.444)"/><rect class="d" width="3.938" height="1.969" transform="translate(209.683 107.733) rotate(-131.444)"/><rect class="d" width="4.557" height="2.278" transform="translate(200.433 174.942) rotate(118.556)"/><rect class="d" width="2.536" height="1.268" transform="matrix(0.181, 0.983, -0.983, 0.181, 194.787, 151.339)"/><rect class="d" width="4.291" height="2.145" transform="translate(194.706 65.487) rotate(-110.444)"/><rect class="d" width="2.39" height="1.195" transform="matrix(-0.737, -0.676, 0.676, -0.737, 176.618, 338.803)"/><rect class="d" width="3.01" height="1.505" transform="translate(186.49 223.143) rotate(-171.444)"/><rect class="d" width="2.67" height="1.335" transform="translate(170.846 175.727) rotate(-117.444)"/><rect class="d" width="4.172" height="2.086" transform="translate(174.437 137.893) rotate(33.556)"/><rect class="d" width="3.584" height="1.792" transform="translate(181.876 38.093) rotate(66.556)"/><rect class="d" width="3.3" height="1.65" transform="translate(165.907 313.973) rotate(175.556)"/><rect class="d" width="3.655" height="1.827" transform="translate(156.428 201.742) rotate(151.556)"/><rect class="d" width="3.849" height="1.924" transform="matrix(-0.61, 0.793, -0.793, -0.61, 142.51, 351.666)"/><rect class="d" width="2.405" height="1.202" transform="translate(146.601 281.743) rotate(-152.444)"/><rect class="d" width="3.984" height="1.992" transform="translate(145.523 192.475) rotate(-60.444)"/><rect class="d" width="2.436" height="1.218" transform="translate(151.338 159.571) rotate(-173.444)"/><rect class="d" width="4.531" height="2.265" transform="translate(142.85 155.598) rotate(-115.444)"/><rect class="d" width="4.305" height="2.152" transform="translate(144.481 99.807) rotate(66.556)"/><rect class="d" width="4.325" height="2.162" transform="matrix(-0.649, -0.761, 0.761, -0.649, 147.266, 23.95)"/><rect class="d" width="3.124" height="1.562" transform="translate(131.999 360.71) rotate(-26.444)"/><rect class="d" width="4.378" height="2.189" transform="translate(131.983 333.625) rotate(6.556)"/><rect class="d" width="3.102" height="1.551" transform="translate(136.838 260.291) rotate(24.556)"/><rect class="d" width="4.162" height="2.081" transform="translate(119.03 340.453) rotate(15.556)"/><rect class="d" width="4.473" height="2.236" transform="translate(113.064 315.828) rotate(-94.444)"/><rect class="d" width="2.236" height="1.118" transform="matrix(-0.794, 0.608, -0.608, -0.794, 120.584, 278.791)"/><rect class="d" width="5.119" height="2.559" transform="translate(124.429 143.553) rotate(124.556)"/><rect class="d" width="3.369" height="1.684" transform="matrix(0.793, 0.61, -0.61, 0.793, 109.606, 89.14)"/><rect class="d" width="3.571" height="1.785" transform="translate(118.405 54.513) rotate(138.556)"/><rect class="d" width="4.095" height="2.047" transform="translate(118.902 1.094) rotate(-135.444)"/><rect class="d" width="4.987" height="2.493" transform="translate(96.52 269.591) rotate(15.556)"/><rect class="d" width="2.307" height="1.153" transform="matrix(-0.251, 0.968, -0.968, -0.251, 97.503, 240.759)"/><rect class="d" width="4.734" height="2.367" transform="matrix(-0.861, -0.508, 0.508, -0.861, 100.108, 136.474)"/><rect class="d" width="2.403" height="1.201" transform="translate(99.692 34.146) rotate(29.556)"/><rect class="d" width="4.719" height="2.359" transform="translate(78.287 205.257) rotate(41.556)"/><rect class="d" width="3.834" height="1.917" transform="matrix(0.688, 0.726, -0.726, 0.688, 83.334, 190.132)"/><rect class="d" width="5.003" height="2.501" transform="translate(86.813 157.747) rotate(95.556)"/><rect class="d" width="4.139" height="2.069" transform="translate(68.479 361.655) rotate(-56.444)"/><rect class="d" width="2.684" height="1.342" transform="translate(71.584 305.997) rotate(99.556)"/><rect class="d" width="3.303" height="1.652" transform="translate(67.766 165.93) rotate(175.556)"/><rect class="d" width="2.85" height="1.425" transform="translate(69.295 140.217) rotate(8.556)"/><rect class="d" width="2.382" height="1.191" transform="matrix(0.181, 0.983, -0.983, 0.181, 73.293, 47.983)"/><rect class="d" width="3.388" height="1.694" transform="translate(59.373 1.53) rotate(-57.444)"/><rect class="d" width="4.542" height="2.271" transform="matrix(0.771, 0.637, -0.637, 0.771, 46.387, 199.636)"/><rect class="d" width="4.076" height="2.038" transform="matrix(-0.3, -0.954, 0.954, -0.3, 49.466, 158.15)"/><rect class="d" width="3.22" height="1.61" transform="translate(55.989 98.177) rotate(74.556)"/><rect class="d" width="5.044" height="2.522" transform="translate(33.516 361.991) rotate(-150.444)"/><rect class="d" width="2.673" height="1.337" transform="translate(44.896 198.97) rotate(87.556)"/><rect class="d" width="3.278" height="1.639" transform="matrix(0.447, -0.895, 0.895, 0.447, 40.901, 172.495)"/><rect class="d" width="3.273" height="1.636" transform="translate(30.068 131.283) rotate(29.556)"/><rect class="d" width="5.029" height="2.514" transform="matrix(0.783, -0.622, 0.622, 0.783, 20.819, 343.104)"/><rect class="d" width="3.654" height="1.827" transform="translate(25.302 246.765) rotate(143.556)"/><rect class="d" width="5.152" height="2.576" transform="matrix(0.431, -0.902, 0.902, 0.431, 15.193, 225.731)"/><rect class="d" width="4.968" height="2.484" transform="translate(27.016 212.791) rotate(-41.444)"/><rect class="d" width="4.991" height="2.495" transform="translate(20.818 129.884) rotate(-97.444)"/><rect class="d" width="3.788" height="1.894" transform="translate(26.987 107.283) rotate(168.556)"/><rect class="d" width="2.645" height="1.322" transform="translate(15.101 356.109) rotate(-152.444)"/><rect class="d" width="3.996" height="1.998" transform="matrix(0.234, -0.972, 0.972, 0.234, -1.387, 309.215)"/><rect class="d" width="3.449" height="1.724" transform="matrix(-0.968, -0.251, 0.251, -0.968, 5.065, 288.716)"/><rect class="d" width="4.67" height="2.335" transform="translate(7.235 232.834) rotate(152.556)"/><rect class="e" width="1.763" height="0.882" transform="matrix(0.882, -0.471, 0.471, 0.882, 368.001, 347.359)"/><rect class="e" width="2.016" height="1.009" transform="matrix(-0.376, -0.927, 0.927, -0.376, 355.822, 190.815)"/><rect class="e" width="1.705" height="0.853" transform="translate(370.324 180.107) rotate(-18.079)"/><rect class="e" width="2.372" height="1.187" transform="matrix(-0.277, -0.961, 0.961, -0.277, 342.551, 351.176)"/><rect class="e" width="3.494" height="1.748" transform="translate(342.7 338.957) rotate(-14.079)"/><rect class="e" width="3.407" height="1.705" transform="matrix(-0.838, 0.546, -0.546, -0.838, 344.495, 217.804)"/><rect class="e" width="1.757" height="0.879" transform="translate(350.489 139.725) rotate(-169.079)"/><rect class="e" width="2.483" height="1.243" transform="matrix(0.694, -0.72, 0.72, 0.694, 340.584, 118.807)"/><rect class="e" width="3.808" height="1.906" transform="translate(349.501 61.207) rotate(12.921)"/><rect class="e" width="3.469" height="1.736" transform="matrix(0.257, -0.966, 0.966, 0.257, 345.728, 54.758)"/><rect class="e" width="2.556" height="1.279" transform="translate(335.724 207.037) rotate(-126.079)"/><rect class="e" width="2.507" height="1.255" transform="matrix(0.72, 0.694, -0.694, 0.72, 335.575, 95.272)"/><rect class="e" width="3.198" height="1.6" transform="translate(325.949 82.326) rotate(47.921)"/><rect class="e" width="3.714" height="1.858" transform="translate(311.132 263.873) rotate(-92.079)"/><rect class="e" width="2.57" height="1.286" transform="matrix(0.966, 0.257, -0.257, 0.966, 313.585, 232.76)"/><rect class="e" width="3.594" height="1.799" transform="translate(312.716 214.432) rotate(-173.079)"/><rect class="e" width="3.29" height="1.646" transform="translate(317.917 180.597) rotate(120.921)"/><rect class="e" width="2.055" height="1.028" transform="matrix(-1, 0.019, -0.019, -1, 323.304, 61.207)"/><rect class="e" width="3.769" height="1.886" transform="translate(314.723 55.229) rotate(-154.079)"/><rect class="e" width="3.423" height="1.713" transform="translate(322.657 35.703) rotate(-21.079)"/><rect class="e" width="3.311" height="1.657" transform="translate(299.533 335.587) rotate(-104.079)"/><rect class="e" width="1.895" height="0.948" transform="matrix(-0.001, -1, 1, -0.001, 297.984, 308.147)"/><rect class="e" width="2.473" height="1.238" transform="translate(300.062 288.345) rotate(-79.079)"/><rect class="e" width="3.311" height="1.657" transform="translate(300.35 259.21) rotate(-40.079)"/><rect class="e" width="3.144" height="1.573" transform="matrix(-0.914, -0.405, 0.405, -0.914, 300.752, 71.049)"/><rect class="e" width="2.468" height="1.235" transform="translate(292.152 350.371) rotate(85.921)"/><rect class="e" width="3.708" height="1.856" transform="matrix(-0.327, -0.945, 0.945, -0.327, 282.453, 312.989)"/><rect class="e" width="3.66" height="1.832" transform="matrix(-0.001, -1, 1, -0.001, 279.194, 245.191)"/><rect class="e" width="3.239" height="1.621" transform="matrix(0.756, 0.655, -0.655, 0.756, 285.365, 52.664)"/><rect class="e" width="1.981" height="0.991" transform="matrix(1, -0.001, 0.001, 1, 283.309, 10.624)"/><rect class="e" width="3.549" height="1.776" transform="translate(265.881 288.523) rotate(-114.079)"/><rect class="e" width="3.137" height="1.57" transform="matrix(-0.708, -0.706, 0.706, -0.708, 264.384, 70.045)"/><rect class="e" width="1.775" height="0.888" transform="translate(268.467 54.688) rotate(52.921)"/><rect class="e" width="3.495" height="1.749" transform="translate(260.21 297.538) rotate(162.921)"/><rect class="e" width="3.726" height="1.865" transform="matrix(0.906, -0.424, 0.424, 0.906, 250.821, 265.237)"/><rect class="e" width="2.79" height="1.396" transform="translate(248.964 107.332) rotate(101.921)"/><rect class="e" width="3.288" height="1.646" transform="translate(260.399 53.788) rotate(-48.079)"/><rect class="e" width="1.865" height="0.933" transform="matrix(-0.086, 0.996, -0.996, -0.086, 260.951, 27.834)"/><rect class="e" width="3.706" height="1.855" transform="matrix(-0.103, 0.995, -0.995, -0.103, 246.743, 328.055)"/><rect class="e" width="1.972" height="0.987" transform="translate(232.544 201.173) rotate(-15.079)"/><rect class="e" width="2.203" height="1.103" transform="translate(245.695 184.608) rotate(142.921)"/><rect class="e" width="2.571" height="1.286" transform="matrix(0.945, -0.327, 0.327, 0.945, 236.24, 157.49)"/><rect class="e" width="1.986" height="0.994" transform="translate(238.749 118.359) rotate(156.921)"/><rect class="e" width="1.693" height="0.847" transform="translate(235.078 9.694) rotate(-39.079)"/><rect class="e" width="3.539" height="1.771" transform="matrix(0.756, 0.655, -0.655, 0.756, 214.738, 248.954)"/><rect class="e" width="2.478" height="1.24" transform="translate(220.596 149.62) rotate(-177.079)"/><rect class="e" width="2.609" height="1.306" transform="translate(218.449 119.256) rotate(145.921)"/><rect class="e" width="2.298" height="1.15" transform="translate(212.945 345.2) rotate(-65.079)"/><rect class="e" width="3.585" height="1.794" transform="matrix(0.838, -0.546, 0.546, 0.838, 208.807, 298.533)"/><rect class="e" width="3.252" height="1.627" transform="translate(203.867 233.666) rotate(-152.079)"/><rect class="e" width="2.192" height="1.097" transform="translate(173.234 292.554) rotate(-92.079)"/><rect class="e" width="3.007" height="1.505" transform="translate(179.315 268.424) rotate(155.921)"/><rect class="e" width="2.36" height="1.181" transform="translate(181.396 238.557) rotate(117.921)"/><rect class="e" width="2.066" height="1.034" transform="matrix(0.617, 0.787, -0.787, 0.617, 174.37, 213.69)"/><rect class="e" width="2.621" height="1.312" transform="matrix(0.962, 0.274, -0.274, 0.962, 174.656, 63.649)"/><rect class="e" width="3.856" height="1.93" transform="translate(159.784 361.523) rotate(-179.079)"/><rect class="e" width="3.174" height="1.588" transform="matrix(-0.158, -0.987, 0.987, -0.158, 157.181, 250.72)"/><rect class="e" width="3.371" height="1.687" transform="translate(146.626 210.421) rotate(102.921)"/><rect class="e" width="2.064" height="1.033" transform="translate(142.708 122.479) rotate(92.921)"/><rect class="e" width="1.731" height="0.866" transform="translate(153.442 119.911) rotate(86.921)"/><rect class="e" width="1.708" height="0.855" transform="translate(131.32 242.588) rotate(169.921)"/><rect class="e" width="3.024" height="1.513" transform="matrix(-0.516, -0.856, 0.856, -0.516, 129.557, 215.665)"/><rect class="e" width="3.34" height="1.671" transform="translate(127.982 129.716) rotate(-157.079)"/><rect class="e" width="3.866" height="1.934" transform="translate(120.574 124.438) rotate(-65.079)"/><rect class="e" width="2.883" height="1.443" transform="translate(136.021 82.279) rotate(110.921)"/><rect class="e" width="2.242" height="1.122" transform="translate(125.904 73.154) rotate(-132.079)"/><rect class="e" width="2.391" height="1.197" transform="matrix(-1, 0.019, -0.019, -1, 129.893, 35.015)"/><rect class="e" width="2.294" height="1.148" transform="matrix(-0.086, 0.996, -0.996, -0.086, 127.581, 8.9)"/><rect class="e" width="1.779" height="0.89" transform="matrix(-0.706, 0.708, -0.708, -0.706, 117.544, 263.313)"/><rect class="e" width="3.016" height="1.509" transform="matrix(0.529, -0.849, 0.849, 0.529, 105.557, 200.481)"/><rect class="e" width="3.415" height="1.709" transform="matrix(0.914, 0.405, -0.405, 0.914, 114.344, 120.145)"/><rect class="e" width="2.995" height="1.499" transform="translate(96.083 249.979) rotate(-126.079)"/><rect class="e" width="1.91" height="0.956" transform="matrix(-0.601, 0.799, -0.799, -0.601, 87.041, 299.493)"/><rect class="e" width="2.2" height="1.101" transform="matrix(0.928, 0.373, -0.373, 0.928, 88.431, 117.552)"/><rect class="e" width="3.03" height="1.516" transform="matrix(-0.376, -0.927, 0.927, -0.376, 81.624, 89.683)"/><rect class="e" width="2.399" height="1.201" transform="matrix(-0.405, 0.914, -0.914, -0.405, 74.203, 267.758)"/><rect class="e" width="3.081" height="1.541" transform="translate(75.376 20.391) rotate(153.921)"/><rect class="e" width="3.029" height="1.516" transform="matrix(-0.756, -0.655, 0.655, -0.756, 58.085, 335.412)"/><rect class="e" width="2.186" height="1.094" transform="matrix(-0.103, 0.995, -0.995, -0.103, 52.917, 300.795)"/><rect class="e" width="3.802" height="1.902" transform="translate(49.701 238.311) rotate(85.921)"/><rect class="e" width="2.611" height="1.307" transform="translate(49.47 225.733) rotate(9.921)"/><rect class="e" width="3.05" height="1.526" transform="translate(45.412 91.329) rotate(-152.079)"/><rect class="e" width="3.829" height="1.916" transform="translate(43.761 285.098) rotate(-126.079)"/><rect class="e" width="2.698" height="1.35" transform="translate(39.479 268.424) rotate(-29.079)"/><rect class="e" width="1.81" height="0.906" transform="matrix(0.587, -0.81, 0.81, 0.587, 39.845, 95.521)"/><rect class="e" width="3.839" height="1.921" transform="matrix(-0.642, 0.767, -0.767, -0.642, 35.723, 73.681)"/><rect class="e" width="3.528" height="1.765" transform="matrix(-0.839, -0.543, 0.543, -0.839, 21.502, 288.466)"/><rect class="e" width="3.791" height="1.897" transform="matrix(0.787, -0.617, 0.617, 0.787, -0.007, 44.465)"/><rect class="e" width="1.755" height="0.878" transform="matrix(0.471, 0.882, -0.882, 0.471, 9.931, 19.244)"/><rect class="f" width="3.489" height="1.745" transform="translate(366.854 338.428) rotate(-175.821)"/><rect class="f" width="5.37" height="2.685" transform="matrix(0.171, 0.985, -0.985, 0.171, 364.72, 277.266)"/><rect class="f" width="2.591" height="1.296" transform="translate(364.314 167.83) rotate(95.179)"/><rect class="f" width="2.715" height="1.358" transform="matrix(0.228, -0.974, 0.974, 0.228, 360, 57.034)"/><rect class="f" width="3.333" height="1.667" transform="translate(347.34 361.372) rotate(-178.821)"/><rect class="f" width="4.353" height="2.177" transform="translate(347.198 299.704) rotate(-177.821)"/><rect class="f" width="3.021" height="1.511" transform="translate(356.532 185.598) rotate(140.179)"/><rect class="f" width="3.323" height="1.662" transform="matrix(0.801, -0.599, 0.599, 0.801, 346.427, 154.266)"/><rect class="f" width="4.667" height="2.334" transform="translate(352.023 25.571) rotate(-12.821)"/><rect class="f" width="4.719" height="2.36" transform="translate(349.272 1.705) rotate(165.179)"/><rect class="f" width="4.468" height="2.235" transform="matrix(-1, 0.014, -0.014, -1, 335.726, 263.756)"/><rect class="f" width="3.694" height="1.848" transform="translate(331.273 237.128) rotate(-134.821)"/><rect class="f" width="4.281" height="2.141" transform="matrix(0.984, 0.177, -0.177, 0.984, 313.152, 332.233)"/><rect class="f" width="3.487" height="1.744" transform="translate(318.267 311.446) rotate(113.179)"/><rect class="f" width="5.37" height="2.686" transform="matrix(0.981, 0.194, -0.194, 0.981, 312.436, 295.4)"/><rect class="f" width="2.865" height="1.433" transform="translate(307.566 324.895) rotate(-174.821)"/><rect class="f" width="3.618" height="1.809" transform="matrix(-0.922, 0.388, -0.388, -0.922, 308.364, 222.937)"/><rect class="f" width="3.291" height="1.646" transform="matrix(-0.585, -0.811, 0.811, -0.585, 302.116, 201.282)"/><rect class="f" width="3.429" height="1.715" transform="translate(305.144 156.694) rotate(-38.821)"/><rect class="f" width="2.75" height="1.375" transform="matrix(0.722, -0.692, 0.692, 0.722, 296.969, 111.78)"/><rect class="f" width="4.463" height="2.232" transform="matrix(0.801, -0.599, 0.599, 0.801, 307.228, 28.189)"/><rect class="f" width="4.883" height="2.442" transform="translate(282.456 330.013) rotate(19.179)"/><rect class="f" width="4.139" height="2.07" transform="translate(282.187 217.888) rotate(-116.821)"/><rect class="f" width="5.743" height="2.872" transform="translate(288.944 198.112) rotate(-16.821)"/><rect class="f" width="3.959" height="1.98" transform="translate(285.072 98.377) rotate(110.179)"/><rect class="f" width="5.204" height="2.602" transform="translate(271.831 261.354) rotate(-14.821)"/><rect class="f" width="3.25" height="1.625" transform="matrix(-0.425, 0.905, -0.905, -0.425, 267.942, 123.373)"/><rect class="f" width="5.554" height="2.778" transform="translate(280.554 102.665) rotate(-172.821)"/><rect class="f" width="5.786" height="2.893" transform="matrix(0.981, 0.194, -0.194, 0.981, 266.416, 1.566)"/><rect class="f" width="2.61" height="1.305" transform="matrix(-0.562, 0.827, -0.827, -0.562, 259.765, 254.186)"/><rect class="f" width="5.127" height="2.564" transform="translate(250.572 44.723) rotate(-83.821)"/><rect class="f" width="4.884" height="2.442" transform="matrix(-0.733, 0.68, -0.68, -0.733, 236.781, 267.236)"/><rect class="f" width="5.665" height="2.833" transform="translate(227.369 362.474) rotate(149.179)"/><rect class="f" width="3.286" height="1.643" transform="matrix(0.868, -0.497, 0.497, 0.868, 226.97, 318.483)"/><rect class="f" width="3.407" height="1.704" transform="translate(233.032 280.764) rotate(-161.821)"/><rect class="f" width="5.105" height="2.553" transform="matrix(0.119, 0.993, -0.993, 0.119, 222.97, 53.181)"/><rect class="f" width="4.099" height="2.05" transform="matrix(0.786, 0.618, -0.618, 0.786, 224.343, 14.515)"/><rect class="f" width="5.656" height="2.829" transform="matrix(0.846, 0.533, -0.533, 0.846, 199.586, 187.897)"/><rect class="f" width="5.203" height="2.602" transform="translate(210.316 175.539) rotate(-31.821)"/><rect class="f" width="3.026" height="1.513" transform="translate(207.905 152.581) rotate(-109.821)"/><rect class="f" width="5.076" height="2.539" transform="translate(216.02 139.704) rotate(-123.821)"/><rect class="f" width="4.226" height="2.113" transform="translate(209.854 69.756) rotate(-101.821)"/><rect class="f" width="4.278" height="2.14" transform="translate(215.291 16.834) rotate(61.179)"/><rect class="f" width="5.765" height="2.883" transform="translate(192.429 344.334) rotate(161.179)"/><rect class="f" width="3.429" height="1.715" transform="matrix(-0.987, -0.16, 0.16, -0.987, 192.163, 334.658)"/><rect class="f" width="3.965" height="1.983" transform="matrix(0.984, 0.177, -0.177, 0.984, 188.193, 294.271)"/><rect class="f" width="3.925" height="1.963" transform="translate(189.634 279.267) rotate(-32.821)"/><rect class="f" width="5.364" height="2.683" transform="translate(191.379 226.565) rotate(23.179)"/><rect class="f" width="2.928" height="1.464" transform="translate(193.615 184.194) rotate(5.179)"/><rect class="f" width="3.497" height="1.749" transform="translate(194.001 156.413) rotate(57.179)"/><rect class="f" width="5.085" height="2.543" transform="translate(194.73 27.743) rotate(-59.821)"/><rect class="f" width="5.174" height="2.588" transform="translate(170.914 131.535) rotate(-31.821)"/><rect class="f" width="3.251" height="1.626" transform="translate(183.09 77.249) rotate(-5.821)"/><rect class="f" width="4.212" height="2.106" transform="matrix(-0.59, 0.807, -0.807, -0.59, 174.596, 53.862)"/><rect class="f" width="4.867" height="2.434" transform="matrix(0.441, -0.897, 0.897, 0.441, 166.679, 200.968)"/><rect class="f" width="4.837" height="2.419" transform="translate(165.54 178.255) rotate(30.179)"/><rect class="f" width="5.88" height="2.94" transform="matrix(-0.733, 0.68, -0.68, -0.733, 159.684, 161.992)"/><rect class="f" width="5.665" height="2.833" transform="translate(156.884 152.228) rotate(-25.821)"/><rect class="f" width="4.038" height="2.02" transform="translate(165.614 111.546) rotate(97.179)"/><rect class="f" width="3.312" height="1.656" transform="translate(163.047 94.076) rotate(-62.821)"/><rect class="f" width="5.717" height="2.859" transform="translate(152.832 62.017) rotate(-19.821)"/><rect class="f" width="2.788" height="1.394" transform="translate(161.024 53.383) rotate(155.179)"/><rect class="f" width="3.105" height="1.553" transform="matrix(-0.998, -0.055, 0.055, -0.998, 168.959, 35.978)"/><rect class="f" width="4.082" height="2.042" transform="matrix(-0.837, -0.547, 0.547, -0.837, 167.192, 14.702)"/><rect class="f" width="5.305" height="2.653" transform="translate(150.551 329.571) rotate(91.179)"/><rect class="f" width="5.786" height="2.893" transform="translate(153.29 66.116) rotate(75.179)"/><rect class="f" width="5.006" height="2.503" transform="matrix(-0.014, -1, 1, -0.014, 150.7, 0.966)"/><rect class="f" width="5.071" height="2.536" transform="matrix(-0.472, 0.881, -0.881, -0.472, 133.74, 170.461)"/><rect class="f" width="5.366" height="2.684" transform="matrix(0.055, -0.998, 0.998, 0.055, 132.504, 167.966)"/><rect class="f" width="4.723" height="2.362" transform="matrix(0.753, 0.658, -0.658, 0.753, 125.937, 18.484)"/><rect class="f" width="4.693" height="2.347" transform="translate(112.126 368.564) rotate(-82.821)"/><rect class="f" width="4.296" height="2.148" transform="translate(112.934 25.497) rotate(171.179)"/><rect class="f" width="2.652" height="1.326" transform="matrix(-0.194, 0.981, -0.981, -0.194, 96.904, 331.232)"/><rect class="f" width="5.262" height="2.631" transform="matrix(-0.472, 0.881, -0.881, -0.472, 98.334, 319.237)"/><rect class="f" width="5.342" height="2.672" transform="matrix(0.194, -0.981, 0.981, 0.194, 92.153, 301.433)"/><rect class="f" width="3.879" height="1.94" transform="translate(105.462 190.371) rotate(-111.821)"/><rect class="f" width="3.476" height="1.738" transform="matrix(-0.868, 0.497, -0.497, -0.868, 105.929, 169.16)"/><rect class="f" width="4.21" height="2.106" transform="translate(102.649 120.108) rotate(15.179)"/><rect class="f" width="4.151" height="2.076" transform="translate(103.386 87.037) rotate(-128.821)"/><rect class="f" width="4.474" height="2.237" transform="matrix(-0.722, 0.692, -0.692, -0.722, 94.933, 62.334)"/><rect class="f" width="4.188" height="2.094" transform="matrix(-0.177, 0.984, -0.984, -0.177, 102.563, 54.161)"/><rect class="f" width="4.427" height="2.214" transform="translate(82.785 371.102) rotate(-111.821)"/><rect class="f" width="3.96" height="1.98" transform="matrix(0.388, 0.922, -0.922, 0.388, 78.343, 344.822)"/><rect class="f" width="5.709" height="2.855" transform="translate(89.561 283.025) rotate(-5.821)"/><rect class="f" width="4.821" height="2.411" transform="matrix(-0.971, 0.239, -0.239, -0.971, 79.748, 270.209)"/><rect class="f" width="5.014" height="2.507" transform="translate(82.592 236.904) rotate(102.179)"/><rect class="f" width="4.133" height="2.067" transform="translate(89.145 180.262) rotate(-34.821)"/><rect class="f" width="4.677" height="2.339" transform="translate(88.043 130.305) rotate(-39.821)"/><rect class="f" width="4.328" height="2.164" transform="translate(82.686 59.518) rotate(142.179)"/><rect class="f" width="2.576" height="1.288" transform="translate(81.273 29.802) rotate(-74.821)"/><rect class="f" width="4.085" height="2.043" transform="matrix(0.055, -0.998, 0.998, 0.055, 70.288, 284.341)"/><rect class="f" width="3.581" height="1.791" transform="translate(66.416 255.186) rotate(31.179)"/><rect class="f" width="5.745" height="2.873" transform="matrix(-0.003, 1, -1, -0.003, 61.548, 219.343)"/><rect class="f" width="3.397" height="1.699" transform="matrix(-0.993, 0.119, -0.119, -0.993, 64.769, 216.365)"/><rect class="f" width="2.94" height="1.47" transform="translate(66.882 175.253) rotate(73.179)"/><rect class="f" width="5.508" height="2.754" transform="translate(66.935 135.944) rotate(91.179)"/><rect class="f" width="4.843" height="2.422" transform="translate(60.148 100.499) rotate(-28.821)"/><rect class="f" width="5.79" height="2.895" transform="translate(68.259 88.473) rotate(117.179)"/><rect class="f" width="5.266" height="2.633" transform="matrix(-0.775, -0.632, 0.632, -0.775, 77.483, 32.137)"/><rect class="f" width="2.895" height="1.448" transform="matrix(-0.733, 0.68, -0.68, -0.733, 53.764, 183.068)"/><rect class="f" width="4.573" height="2.287" transform="translate(56.211 119.402) rotate(-98.821)"/><rect class="f" width="5.586" height="2.794" transform="translate(54.782 41.031) rotate(96.179)"/><rect class="f" width="4.944" height="2.472" transform="matrix(-0.654, -0.757, 0.757, -0.654, 43.115, 167.035)"/><rect class="f" width="4.412" height="2.206" transform="matrix(0.467, 0.884, -0.884, 0.467, 45.057, 142.475)"/><rect class="f" width="3.711" height="1.856" transform="matrix(0.562, -0.827, 0.827, 0.562, 39.023, 45.45)"/><rect class="f" width="5.523" height="2.762" transform="matrix(-0.576, 0.817, -0.817, -0.576, 45.714, 21.628)"/><rect class="f" width="4.909" height="2.455" transform="matrix(-0.654, -0.757, 0.757, -0.654, 42.701, 3.979)"/><rect class="f" width="4.167" height="2.084" transform="translate(24.24 159.413) rotate(14.179)"/><rect class="f" width="3.445" height="1.723" transform="matrix(0.273, 0.962, -0.962, 0.273, 25.008, 88.024)"/><rect class="f" width="5.594" height="2.797" transform="matrix(0.599, 0.801, -0.801, 0.599, 22.217, 41.471)"/><rect class="f" width="4.505" height="2.253" transform="matrix(0.998, -0.067, 0.067, 0.998, 14.079, 22.496)"/><rect class="f" width="5.361" height="2.681" transform="translate(0.006 223.534) rotate(-94.821)"/><rect class="f" width="4.202" height="2.102" transform="translate(8.208 207.423) rotate(-174.821)"/><rect class="f" width="3.024" height="1.512" transform="translate(0.827 172.102) rotate(50.179)"/><rect class="g" width="3.238" height="1.619" transform="translate(360.482 305.998) rotate(119.15)"/><rect class="g" width="3.11" height="1.555" transform="translate(366.537 227.843) rotate(-128.85)"/><rect class="g" width="3.815" height="1.907" transform="matrix(0.768, -0.641, 0.641, 0.768, 357.431, 76.948)"/><rect class="g" width="2.569" height="1.285" transform="matrix(0.356, 0.935, -0.935, 0.356, 367.043, 64.316)"/><rect class="g" width="4.045" height="2.022" transform="translate(353.067 262.431) rotate(-19.85)"/><rect class="g" width="2.987" height="1.494" transform="matrix(1, 0.003, -0.003, 1, 346.761, 213.516)"/><rect class="g" width="2.815" height="1.407" transform="matrix(0.641, 0.768, -0.768, 0.641, 328.753, 311.248)"/><rect class="g" width="3.984" height="1.992" transform="translate(336.575 305.237) rotate(-140.85)"/><rect class="g" width="3.828" height="1.914" transform="translate(337.1 289.513) rotate(-27.85)"/><rect class="g" width="3.212" height="1.606" transform="translate(330.775 271.416) rotate(-151.85)"/><rect class="g" width="3.361" height="1.68" transform="matrix(0.02, -1, 1, 0.02, 328.341, 225.82)"/><rect class="g" width="2.932" height="1.466" transform="translate(337.39 163.13) rotate(88.15)"/><rect class="g" width="3.313" height="1.656" transform="matrix(0.171, 0.985, -0.985, 0.171, 329.239, 124.685)"/><rect class="g" width="3.787" height="1.894" transform="translate(338.651 26.069) rotate(93.15)"/><rect class="g" width="4.016" height="2.008" transform="matrix(0.965, 0.261, -0.261, 0.965, 316.396, 370.182)"/><rect class="g" width="2.809" height="1.405" transform="matrix(0.979, -0.205, 0.205, 0.979, 315.897, 342.673)"/><rect class="g" width="2.722" height="1.361" transform="translate(313.532 161.622) rotate(-136.85)"/><rect class="g" width="2.155" height="1.077" transform="translate(309.813 129.602) rotate(-49.85)"/><rect class="g" width="2.031" height="1.015" transform="matrix(0.999, 0.038, -0.038, 0.999, 299.758, 270.938)"/><rect class="g" width="2.543" height="1.271" transform="translate(303.917 234.875) rotate(68.15)"/><rect class="g" width="2.312" height="1.156" transform="translate(302.764 180.75) rotate(146.15)"/><rect class="g" width="2.445" height="1.222" transform="matrix(0.517, -0.856, 0.856, 0.517, 305.122, 54.224)"/><rect class="g" width="2.986" height="1.493" transform="translate(307.979 29.782) rotate(129.15)"/><rect class="g" width="2.407" height="1.203" transform="translate(290.517 369.894) rotate(67.15)"/><rect class="g" width="2.903" height="1.452" transform="translate(289.58 279.48) rotate(4.15)"/><rect class="g" width="2.29" height="1.145" transform="matrix(0.987, 0.159, -0.159, 0.987, 284.22, 228.268)"/><rect class="g" width="3.021" height="1.51" transform="translate(289.845 140.574) rotate(-29.85)"/><rect class="g" width="3.276" height="1.638" transform="translate(288.262 106.933) rotate(16.15)"/><rect class="g" width="3.398" height="1.699" transform="matrix(-0.859, 0.513, -0.513, -0.859, 273.798, 322.504)"/><rect class="g" width="2.865" height="1.432" transform="matrix(-0.171, -0.985, 0.985, -0.171, 272.281, 179.792)"/><rect class="g" width="2.973" height="1.486" transform="translate(253.146 367.637) rotate(66.15)"/><rect class="g" width="3.43" height="1.715" transform="translate(253.549 156.178) rotate(101.15)"/><rect class="g" width="3.144" height="1.572" transform="matrix(0.29, 0.957, -0.957, 0.29, 262.256, 150.864)"/><rect class="g" width="2.823" height="1.411" transform="translate(248.256 74.18) rotate(29.15)"/><rect class="g" width="2.309" height="1.154" transform="matrix(-0.02, 1, -1, -0.02, 238.242, 235.002)"/><rect class="g" width="2.555" height="1.278" transform="translate(234.25 218.869) rotate(-77.85)"/><rect class="g" width="1.812" height="0.906" transform="translate(245.031 194.729) rotate(-12.85)"/><rect class="g" width="3.413" height="1.706" transform="translate(218.125 159.126) rotate(-56.85)"/><rect class="g" width="3.522" height="1.761" transform="matrix(0.502, -0.865, 0.865, 0.502, 221.034, 107.827)"/><rect class="g" width="3.648" height="1.824" transform="matrix(0.393, -0.919, 0.919, 0.393, 223.348, 13.031)"/><rect class="g" width="2.637" height="1.318" transform="translate(200.145 369.581) rotate(-71.85)"/><rect class="g" width="2.542" height="1.271" transform="translate(209.131 265.236) rotate(-34.85)"/><rect class="g" width="1.902" height="0.951" transform="translate(210.782 248.748) rotate(-123.85)"/><rect class="g" width="2.858" height="1.429" transform="translate(198.966 211.498) rotate(-60.85)"/><rect class="g" width="2.767" height="1.383" transform="translate(208.318 161.897) rotate(-55.85)"/><rect class="g" width="2.554" height="1.277" transform="translate(212.863 82.785) rotate(-72.85)"/><rect class="g" width="2.523" height="1.261" transform="translate(211.097 58.992) rotate(-107.85)"/><rect class="g" width="2.261" height="1.131" transform="matrix(0.919, 0.393, -0.393, 0.919, 212.87, 11.295)"/><rect class="g" width="3.801" height="1.9" transform="translate(199.839 235.856) rotate(95.15)"/><rect class="g" width="3.743" height="1.872" transform="matrix(-0.992, -0.124, 0.124, -0.992, 196.528, 210.02)"/><rect class="g" width="3.444" height="1.722" transform="matrix(0.542, 0.84, -0.84, 0.542, 197.186, 80.479)"/><rect class="g" width="2.036" height="1.018" transform="translate(190.781 58.558) rotate(56.15)"/><rect class="g" width="2.569" height="1.285" transform="translate(177.093 368.034) rotate(127.15)"/><rect class="g" width="1.978" height="0.989" transform="translate(181.617 260.063) rotate(79.15)"/><rect class="g" width="3.952" height="1.976" transform="translate(181.772 154.264) rotate(103.15)"/><rect class="g" width="2.485" height="1.242" transform="matrix(0.971, -0.239, 0.239, 0.971, 176.925, 110.007)"/><rect class="g" width="2.055" height="1.027" transform="translate(183.564 14.088) rotate(-40.85)"/><rect class="g" width="2.596" height="1.298" transform="translate(156.011 292.27) rotate(3.15)"/><rect class="g" width="3.706" height="1.853" transform="translate(165.398 240.826) rotate(137.15)"/><rect class="g" width="3.649" height="1.824" transform="translate(156.008 15.51) rotate(43.15)"/><rect class="g" width="2.798" height="1.399" transform="translate(152.323 371.164) rotate(-142.85)"/><rect class="g" width="3.422" height="1.711" transform="matrix(-0.641, -0.768, 0.768, -0.641, 147.708, 248.343)"/><rect class="g" width="3.006" height="1.503" transform="translate(142.219 181.971) rotate(178.15)"/><rect class="g" width="3.3" height="1.65" transform="matrix(0.979, -0.205, 0.205, 0.979, 150.034, 76.916)"/><rect class="g" width="3.789" height="1.894" transform="matrix(0.176, -0.984, 0.984, 0.176, 139.416, 55.34)"/><rect class="g" width="3.022" height="1.511" transform="translate(138.081 44.559) rotate(-118.85)"/><rect class="g" width="2.318" height="1.159" transform="translate(124.148 280.399) rotate(141.15)"/><rect class="g" width="2.742" height="1.371" transform="translate(131.516 45.588) rotate(64.15)"/><rect class="g" width="2.879" height="1.439" transform="translate(114.936 332.081) rotate(-131.85)"/><rect class="g" width="3.248" height="1.624" transform="matrix(-0.856, -0.517, 0.517, -0.856, 116.958, 308.963)"/><rect class="g" width="2.047" height="1.023" transform="matrix(0.513, 0.859, -0.859, 0.513, 113.678, 276.426)"/><rect class="g" width="2.464" height="1.232" transform="translate(111.232 241.543) rotate(-175.85)"/><rect class="g" width="2.714" height="1.357" transform="translate(108.787 155.514) rotate(17.15)"/><rect class="g" width="3.11" height="1.555" transform="translate(117.397 138.651) rotate(-107.85)"/><rect class="g" width="2.648" height="1.324" transform="translate(109.24 72.889) rotate(171.15)"/><rect class="g" width="2.05" height="1.025" transform="translate(99.592 289.223) rotate(-117.85)"/><rect class="g" width="2.54" height="1.27" transform="translate(105.054 223.415) rotate(47.15)"/><rect class="g" width="2.072" height="1.036" transform="translate(105.664 153.595) rotate(-105.85)"/><rect class="g" width="4.091" height="2.045" transform="translate(94.55 22.385) rotate(-123.85)"/><rect class="g" width="2.254" height="1.127" transform="matrix(-0.02, 1, -1, -0.02, 83.153, 146.658)"/><rect class="g" width="4.114" height="2.057" transform="translate(61.447 326.004) rotate(-143.85)"/><rect class="g" width="3.759" height="1.879" transform="matrix(-0.856, -0.517, 0.517, -0.856, 68.27, 120.554)"/><rect class="g" width="2.02" height="1.01" transform="translate(58.135 260.233) rotate(-85.85)"/><rect class="g" width="3.289" height="1.644" transform="translate(46.139 70.833) rotate(-133.85)"/><rect class="g" width="3.753" height="1.876" transform="translate(53.752 22.602) rotate(39.15)"/><rect class="g" width="2.495" height="1.247" transform="matrix(0.205, 0.979, -0.979, 0.205, 28.921, 333.765)"/><rect class="g" width="2.504" height="1.252" transform="translate(40.478 256.97) rotate(-117.85)"/><rect class="g" width="2.038" height="1.019" transform="translate(38.128 122.922) rotate(-155.85)"/><rect class="g" width="3.874" height="1.937" transform="matrix(-0.99, -0.142, 0.142, -0.99, 38.39, 50.694)"/><rect class="g" width="2.528" height="1.264" transform="matrix(-0.965, -0.261, 0.261, -0.965, 17.599, 314.176)"/><rect class="g" width="1.828" height="0.914" transform="translate(28.745 277.857) rotate(128.15)"/><rect class="g" width="3.892" height="1.946" transform="translate(19.215 259.015) rotate(-163.85)"/><rect class="g" width="2.816" height="1.408" transform="translate(26.918 187.642) rotate(127.15)"/><rect class="g" width="2.871" height="1.435" transform="matrix(0.159, -0.987, 0.987, 0.159, 25.909, 59.926)"/><rect class="g" width="3.349" height="1.674" transform="translate(7.517 136) rotate(-95.85)"/><rect class="g" width="3.369" height="1.684" transform="matrix(-0.02, 1, -1, -0.02, 11.233, 111.092)"/><rect class="g" width="3.307" height="1.653" transform="translate(4.387 89.373) rotate(-46.85)"/><rect class="h" width="4.871" height="2.435" transform="translate(370.963 376.359) rotate(164.589)"/><rect class="h" width="2.694" height="1.347" transform="matrix(0.948, 0.319, -0.319, 0.948, 363.81, 311.78)"/><rect class="h" width="4.921" height="2.461" transform="translate(372.161 198.082) rotate(67.589)"/><rect class="h" width="3.982" height="1.991" transform="translate(377.182 59.307) rotate(-173.411)"/><rect class="h" width="2.294" height="1.147" transform="matrix(0.521, 0.853, -0.853, 0.521, 352.924, 337.046)"/><rect class="h" width="3.307" height="1.653" transform="translate(359.407 322.795) rotate(95.589)"/><rect class="h" width="3.596" height="1.798" transform="translate(363.392 151.104) rotate(159.589)"/><rect class="h" width="4.469" height="2.234" transform="matrix(0.784, -0.621, 0.621, 0.784, 350.731, 132.405)"/><rect class="h" width="4.232" height="2.116" transform="translate(360.622 91.781) rotate(41.589)"/><rect class="h" width="4.678" height="2.339" transform="translate(344.6 248.885) rotate(-118.411)"/><rect class="h" width="4.712" height="2.356" transform="translate(338.928 173.243) rotate(151.589)"/><rect class="h" width="4.728" height="2.364" transform="matrix(-0.286, 0.958, -0.958, -0.286, 337.848, 95.089)"/><rect class="h" width="4.81" height="2.405" transform="translate(342.272 80.97) rotate(161.589)"/><rect class="h" width="2.804" height="1.402" transform="matrix(0.958, 0.286, -0.286, 0.958, 337.432, 56.373)"/><rect class="h" width="2.827" height="1.413" transform="translate(330.282 241.826) rotate(37.589)"/><rect class="h" width="3.434" height="1.717" transform="matrix(0.738, -0.674, 0.674, 0.738, 329.333, 137.321)"/><rect class="h" width="3.006" height="1.503" transform="matrix(-0.911, 0.413, -0.413, -0.911, 314.685, 175.868)"/><rect class="h" width="4.131" height="2.065" transform="matrix(-0.286, 0.958, -0.958, -0.286, 317.819, 151.339)"/><rect class="h" width="4.007" height="2.004" transform="translate(303.631 131.768) rotate(-18.411)"/><rect class="h" width="4.3" height="2.15" transform="matrix(-0.621, -0.784, 0.784, -0.621, 291.822, 232.293)"/><rect class="h" width="3.09" height="1.545" transform="translate(299.371 122.412) rotate(-88.411)"/><rect class="h" width="3.015" height="1.508" transform="translate(269.872 325.649) rotate(6.589)"/><rect class="h" width="4.41" height="2.205" transform="translate(277.768 290.942) rotate(41.589)"/><rect class="h" width="2.229" height="1.114" transform="matrix(0.579, 0.815, -0.815, 0.579, 274.531, 252.649)"/><rect class="h" width="4.497" height="2.249" transform="translate(278.263 216.487) rotate(170.589)"/><rect class="h" width="3.999" height="1.999" transform="translate(271.476 129.143) rotate(-54.411)"/><rect class="h" width="3.673" height="1.837" transform="matrix(-0.87, -0.494, 0.494, -0.87, 277.673, 81.893)"/><rect class="h" width="3.605" height="1.802" transform="translate(270.989 273.241) rotate(157.589)"/><rect class="h" width="4.534" height="2.267" transform="translate(262.773 142.739) rotate(81.589)"/><rect class="h" width="3.678" height="1.839" transform="translate(259.245 57.624) rotate(-105.411)"/><rect class="h" width="3.434" height="1.717" transform="translate(238.299 195.563) rotate(-48.411)"/><rect class="h" width="4.039" height="2.02" transform="translate(248.736 128.766) rotate(85.589)"/><rect class="h" width="2.944" height="1.472" transform="translate(243.777 82.567) rotate(0.589)"/><rect class="h" width="3.599" height="1.799" transform="translate(246.415 78.799) rotate(161.589)"/><rect class="h" width="4.186" height="2.093" transform="translate(234.832 353.827) rotate(-109.411)"/><rect class="h" width="3.525" height="1.762" transform="translate(227.376 343.621) rotate(-83.411)"/><rect class="h" width="2.378" height="1.189" transform="translate(238.537 281.352) rotate(161.589)"/><rect class="h" width="4.166" height="2.083" transform="matrix(-0.825, 0.565, -0.565, -0.825, 236.459, 248.062)"/><rect class="h" width="4.763" height="2.381" transform="translate(224.036 131.929) rotate(-102.411)"/><rect class="h" width="2.626" height="1.313" transform="translate(225.56 122.255) rotate(-149.411)"/><rect class="h" width="3.336" height="1.668" transform="translate(239.579 95.982) rotate(154.589)"/><rect class="h" width="4.539" height="2.269" transform="matrix(-0.948, -0.319, 0.319, -0.948, 217.021, 373.035)"/><rect class="h" width="3.836" height="1.918" transform="translate(214.616 338.275) rotate(1.589)"/><rect class="h" width="4.875" height="2.437" transform="matrix(-0.815, 0.579, -0.579, -0.815, 219.113, 273.503)"/><rect class="h" width="3.841" height="1.921" transform="translate(207.604 363.368) rotate(-179.411)"/><rect class="h" width="4.459" height="2.23" transform="matrix(0.911, -0.413, 0.413, 0.911, 201.661, 313.749)"/><rect class="h" width="3.579" height="1.789" transform="matrix(-0.999, 0.042, -0.042, -0.999, 196.381, 185.111)"/><rect class="h" width="4.117" height="2.058" transform="matrix(0.249, 0.969, -0.969, 0.249, 199.608, 169.42)"/><rect class="h" width="4.775" height="2.387" transform="translate(195.323 154.054) rotate(-29.411)"/><rect class="h" width="4.201" height="2.101" transform="translate(191.261 246.745) rotate(172.589)"/><rect class="h" width="4.041" height="2.02" transform="translate(182.676 153.823) rotate(-126.411)"/><rect class="h" width="4.475" height="2.237" transform="translate(189.364 63.079) rotate(-133.411)"/><rect class="h" width="2.499" height="1.249" transform="translate(167.902 275.96) rotate(-68.411)"/><rect class="h" width="4.458" height="2.229" transform="matrix(0.996, -0.094, 0.094, 0.996, 166.098, 184.457)"/><rect class="h" width="3.905" height="1.952" transform="translate(147.569 277.985) rotate(-154.411)"/><rect class="h" width="4.15" height="2.075" transform="matrix(-0.998, 0.059, -0.059, -0.998, 146.879, 277.317)"/><rect class="h" width="3.798" height="1.899" transform="translate(134.647 248.996) rotate(-97.411)"/><rect class="h" width="4.174" height="2.087" transform="translate(121.32 149.916) rotate(-37.411)"/><rect class="h" width="4.89" height="2.445" transform="translate(118.423 94.043) rotate(107.589)"/><rect class="h" width="4.351" height="2.175" transform="matrix(-0.983, -0.184, 0.184, -0.983, 111.591, 265.339)"/><rect class="h" width="3.649" height="1.824" transform="translate(108.111 229.436) rotate(-89.411)"/><rect class="h" width="4.024" height="2.012" transform="matrix(-0.506, -0.862, 0.862, -0.506, 112.442, 152.86)"/><rect class="h" width="3.434" height="1.717" transform="matrix(-0.283, -0.959, 0.959, -0.283, 103.554, 62.802)"/><rect class="h" width="2.57" height="1.285" transform="translate(88.408 366.277) rotate(-62.411)"/><rect class="h" width="4.276" height="2.138" transform="translate(84.21 313.023) rotate(85.589)"/><rect class="h" width="4.924" height="2.462" transform="translate(97.59 55.19) rotate(-88.411)"/><rect class="h" width="4.03" height="2.015" transform="translate(67.55 297.383) rotate(-62.411)"/><rect class="h" width="2.507" height="1.253" transform="matrix(-0.999, 0.042, -0.042, -0.999, 82.291, 242.891)"/><rect class="h" width="4.121" height="2.06" transform="matrix(-0.286, 0.958, -0.958, -0.286, 72.707, 110.67)"/><rect class="h" width="2.705" height="1.352" transform="translate(61.214 366.723) rotate(82.589)"/><rect class="h" width="3.228" height="1.614" transform="translate(61.856 330.901) rotate(-40.411)"/><rect class="h" width="2.851" height="1.426" transform="translate(42.516 345.649) rotate(89.589)"/><rect class="h" width="2.399" height="1.2" transform="translate(49.321 285.769) rotate(173.589)"/><rect class="h" width="4.54" height="2.27" transform="translate(49.229 238.382) rotate(172.589)"/><rect class="h" width="2.82" height="1.41" transform="translate(42.278 130.918) rotate(15.589)"/><rect class="h" width="2.251" height="1.126" transform="translate(28.319 231.622) rotate(-72.411)"/><rect class="h" width="2.172" height="1.086" transform="matrix(-0.042, -0.999, 0.999, -0.042, 32.461, 206.545)"/><rect class="h" width="3.662" height="1.831" transform="matrix(0.936, 0.352, -0.352, 0.936, 25.778, 164.079)"/><rect class="h" width="3.737" height="1.868" transform="translate(21.605 117.15) rotate(-59.411)"/><rect class="h" width="3.779" height="1.889" transform="translate(7.189 362.171) rotate(77.589)"/><rect class="h" width="4.742" height="2.371" transform="matrix(0.853, -0.521, 0.521, 0.853, 4.912, 313.963)"/><rect class="h" width="2.202" height="1.101" transform="matrix(-0.674, -0.738, 0.738, -0.674, 18.249, 240.938)"/><rect class="h" width="3.519" height="1.759" transform="translate(12.126 203.625) rotate(-139.411)"/><rect class="h" width="3.931" height="1.965" transform="matrix(0.958, 0.286, -0.286, 0.958, 18.285, 110.537)"/><rect class="i" width="3.4" height="1.701" transform="translate(355.641 238.271) rotate(-42.628)"/><rect class="i" width="2.222" height="1.112" transform="translate(360.005 216.227) rotate(-40.628)"/><rect class="i" width="2.652" height="1.326" transform="matrix(0.724, -0.69, 0.69, 0.724, 357.653, 32.231)"/><rect class="i" width="4.077" height="2.039" transform="matrix(-0.661, 0.75, -0.75, -0.661, 365.611, 26.611)"/><rect class="i" width="2.881" height="1.441" transform="translate(348.464 131.83) rotate(15.372)"/><rect class="i" width="2.094" height="1.047" transform="translate(339.303 365.101) rotate(-146.628)"/><rect class="i" width="2.755" height="1.378" transform="matrix(-0.597, -0.803, 0.803, -0.597, 331.793, 340.369)"/><rect class="i" width="3.48" height="1.741" transform="translate(332.446 66.788) rotate(49.372)"/><rect class="i" width="3.083" height="1.542" transform="matrix(0.724, -0.69, 0.69, 0.724, 323.854, 289.04)"/><rect class="i" width="4.275" height="2.138" transform="translate(323.48 233.809) rotate(-157.628)"/><rect class="i" width="2.591" height="1.296" transform="matrix(0.997, 0.076, -0.076, 0.997, 312.637, 147.057)"/><rect class="i" width="3.95" height="1.976" transform="matrix(0.991, -0.133, 0.133, 0.991, 316.039, 95.964)"/><rect class="i" width="4.139" height="2.07" transform="matrix(0.621, -0.784, 0.784, 0.621, 309.667, 25.935)"/><rect class="i" width="2.252" height="1.126" transform="matrix(0.724, -0.69, 0.69, 0.724, 309.47, 12.176)"/><rect class="i" width="3.79" height="1.896" transform="translate(295.739 370.763) rotate(-77.628)"/><rect class="i" width="3.649" height="1.825" transform="matrix(-0.634, 0.773, -0.773, -0.634, 302.685, 352.43)"/><rect class="i" width="2.823" height="1.412" transform="translate(305.136 208.051) rotate(-111.628)"/><rect class="i" width="2.067" height="1.034" transform="translate(300.638 5.392) rotate(71.372)"/><rect class="i" width="3.53" height="1.766" transform="translate(279.618 259.93) rotate(15.372)"/><rect class="i" width="4.222" height="2.112" transform="translate(287.16 155.914) rotate(168.372)"/><rect class="i" width="3.093" height="1.547" transform="translate(290.91 126.739) rotate(48.372)"/><rect class="i" width="2.216" height="1.108" transform="translate(281.961 16.495) rotate(161.372)"/><rect class="i" width="2.094" height="1.047" transform="matrix(-0.739, -0.674, 0.674, -0.739, 269.157, 298.197)"/><rect class="i" width="3.739" height="1.87" transform="matrix(-0.554, -0.833, 0.833, -0.554, 274.874, 232.05)"/><rect class="i" width="4.335" height="2.168" transform="translate(277.429 200.284) rotate(157.372)"/><rect class="i" width="3.728" height="1.865" transform="translate(272.547 35.629) rotate(-27.628)"/><rect class="i" width="2.505" height="1.253" transform="translate(250.845 191.129) rotate(161.372)"/><rect class="i" width="3.085" height="1.543" transform="translate(256.295 178.523) rotate(-166.628)"/><rect class="i" width="3.735" height="1.868" transform="matrix(-0.597, -0.803, 0.803, -0.597, 255.389, 132.277)"/><rect class="i" width="2.956" height="1.479" transform="matrix(-0.315, 0.949, -0.949, -0.315, 261.09, 79.903)"/><rect class="i" width="3.477" height="1.739" transform="translate(235.42 373.658) rotate(-69.628)"/><rect class="i" width="2.223" height="1.112" transform="matrix(-0.969, -0.248, 0.248, -0.969, 236.651, 310.984)"/><rect class="i" width="2.259" height="1.13" transform="translate(243.618 282.756) rotate(150.372)"/><rect class="i" width="2.329" height="1.165" transform="translate(242.254 254.09) rotate(16.372)"/><rect class="i" width="1.921" height="0.961" transform="matrix(0.286, 0.958, -0.958, 0.286, 232.555, 128.767)"/><rect class="i" width="3.31" height="1.656" transform="matrix(0.996, 0.094, -0.094, 0.996, 231.83, 97.706)"/><rect class="i" width="1.933" height="0.967" transform="translate(219.408 237.369) rotate(-13.628)"/><rect class="i" width="2.009" height="1.005" transform="translate(230.714 209.446) rotate(-134.628)"/><rect class="i" width="3.87" height="1.936" transform="translate(226.833 173.564) rotate(7.372)"/><rect class="i" width="4.01" height="2.006" transform="matrix(-0.621, 0.784, -0.784, -0.621, 224.604, 132.37)"/><rect class="i" width="3.116" height="1.559" transform="translate(208.367 119.454) rotate(-132.628)"/><rect class="i" width="4" height="2.001" transform="matrix(-0.352, -0.936, 0.936, -0.352, 209.558, 35.823)"/><rect class="i" width="2.695" height="1.348" transform="translate(201.187 361.54) rotate(-147.628)"/><rect class="i" width="3.924" height="1.963" transform="matrix(0.621, -0.784, 0.784, 0.621, 190.445, 282)"/><rect class="i" width="2.188" height="1.095" transform="translate(196.884 44.865) rotate(-131.628)"/><rect class="i" width="4.019" height="2.01" transform="matrix(-0.954, -0.299, 0.299, -0.954, 194.585, 0.917)"/><rect class="i" width="2.767" height="1.384" transform="matrix(0.634, -0.773, 0.773, 0.634, 176.22, 349.84)"/><rect class="i" width="3.488" height="1.745" transform="translate(183.009 317.729) rotate(134.372)"/><rect class="i" width="3.539" height="1.77" transform="translate(172.607 307.699) rotate(-168.628)"/><rect class="i" width="2.482" height="1.241" transform="matrix(-0.936, 0.352, -0.352, -0.936, 158.73, 353.481)"/><rect class="i" width="4.085" height="2.044" transform="translate(158.326 338.9) rotate(29.372)"/><rect class="i" width="2.424" height="1.212" transform="translate(163.179 301.747) rotate(-8.628)"/><rect class="i" width="2.064" height="1.032" transform="matrix(-0.909, 0.417, -0.417, -0.909, 154.882, 266.376)"/><rect class="i" width="3.07" height="1.536" transform="translate(169.029 87.502) rotate(135.372)"/><rect class="i" width="2.251" height="1.126" transform="matrix(0.795, 0.607, -0.607, 0.795, 149.456, 316.534)"/><rect class="i" width="3.569" height="1.785" transform="matrix(0.315, -0.949, 0.949, 0.315, 152.385, 307.922)"/><rect class="i" width="4.342" height="2.172" transform="translate(150.574 273.58) rotate(44.372)"/><rect class="i" width="2.916" height="1.459" transform="translate(148.867 257.221) rotate(71.372)"/><rect class="i" width="3.328" height="1.665" transform="translate(124.476 319.585) rotate(90.372)"/><rect class="i" width="4.096" height="2.049" transform="matrix(0.969, 0.248, -0.248, 0.969, 127.387, 302.718)"/><rect class="i" width="3.018" height="1.51" transform="translate(126.668 275.243) rotate(25.372)"/><rect class="i" width="4.225" height="2.113" transform="translate(131.209 142.697) rotate(-118.628)"/><rect class="i" width="3.802" height="1.902" transform="translate(126.917 97.341) rotate(-93.628)"/><rect class="i" width="4.242" height="2.122" transform="translate(114.027 223.639) rotate(-111.628)"/><rect class="i" width="1.896" height="0.948" transform="matrix(0.521, -0.854, 0.854, 0.521, 112.881, 205.533)"/><rect class="i" width="3.354" height="1.678" transform="translate(111.887 170.395) rotate(86.372)"/><rect class="i" width="2.509" height="1.255" transform="translate(92.639 360.369) rotate(0.372)"/><rect class="i" width="1.93" height="0.966" transform="matrix(0.996, 0.094, -0.094, 0.996, 98.974, 347.808)"/><rect class="i" width="3.909" height="1.955" transform="matrix(0.993, -0.115, 0.115, 0.993, 85.496, 333.218)"/><rect class="i" width="2.963" height="1.482" transform="matrix(0.954, 0.299, -0.299, 0.954, 80.247, 221.271)"/><rect class="i" width="3.983" height="1.992" transform="translate(80.315 93.568) rotate(-155.628)"/><rect class="i" width="2.634" height="1.318" transform="matrix(-0.863, -0.506, 0.506, -0.863, 77.286, 62.945)"/><rect class="i" width="2.966" height="1.484" transform="translate(89.543 28.143) rotate(78.372)"/><rect class="i" width="2.918" height="1.459" transform="matrix(0.554, 0.833, -0.833, 0.554, 53.676, 348.864)"/><rect class="i" width="2.525" height="1.263" transform="translate(54.61 288.723) rotate(-143.628)"/><rect class="i" width="2.03" height="1.015" transform="matrix(0.041, -0.999, 0.999, 0.041, 58.546, 188.04)"/><rect class="i" width="4.262" height="2.132" transform="matrix(0.936, -0.352, 0.352, 0.936, 43.62, 150.27)"/><rect class="i" width="3.234" height="1.618" transform="matrix(0.554, 0.833, -0.833, 0.554, 53.579, 135.705)"/><rect class="i" width="3.014" height="1.508" transform="matrix(-0.133, -0.991, 0.991, -0.133, 48.001, 47.406)"/><rect class="i" width="2.773" height="1.387" transform="matrix(-0.506, 0.863, -0.863, -0.506, 54.729, 1.626)"/><rect class="i" width="3.839" height="1.92" transform="matrix(0.998, 0.059, -0.059, 0.998, 34.088, 318.647)"/><rect class="i" width="2.703" height="1.352" transform="matrix(-0.167, -0.986, 0.986, -0.167, 30.89, 217.779)"/><rect class="i" width="2.497" height="1.249" transform="translate(14.026 363.968) rotate(-159.628)"/><rect class="i" width="4.134" height="2.068" transform="matrix(0.958, -0.286, 0.286, 0.958, 13.872, 338.74)"/><rect class="i" width="3.44" height="1.721" transform="translate(19.29 303.901) rotate(-119.628)"/><rect class="i" width="4.05" height="2.026" transform="matrix(-0.833, 0.554, -0.554, -0.833, 25.53, 6.363)"/><rect class="i" width="2.182" height="1.092" transform="matrix(0.583, 0.813, -0.813, 0.583, 3.371, 267.158)"/><rect class="i" width="3.821" height="1.911" transform="translate(7.879 71.106) rotate(109.372)"/></g></g></g></svg>