<svg xmlns="http://www.w3.org/2000/svg" width="30" height="30" viewBox="0 0 30 30"><defs><style>.a{fill:#fff;}.b{fill:#e0192c;}</style></defs><g transform="translate(0 0)"><circle class="a" cx="13.5" cy="13.5" r="13.5" transform="translate(1.5 1.5)"/><path class="b" d="M15,30A15,15,0,0,1,9.161,1.179,15,15,0,0,1,20.838,28.821,14.908,14.908,0,0,1,15,30Zm7.223-18.433c-2.819,0-4.713,1.8-4.713,4.47a4.433,4.433,0,0,0,1.262,3.282,4.761,4.761,0,0,0,3.4,1.223,4.822,4.822,0,0,0,3.41-1.221,4.376,4.376,0,0,0,1.286-3.267A4.4,4.4,0,0,0,25.593,12.8,4.721,4.721,0,0,0,22.223,11.567ZM5.072,16.585a1.778,1.778,0,0,0-1.12,1.733c0,1.415,1.346,2.226,3.694,2.226a4.461,4.461,0,0,0,3.321-1.135A4.92,4.92,0,0,0,12.1,15.866V10.653c0-1.066-.505-1.606-1.5-1.606h-.5c-.96,0-1.467.555-1.467,1.606v5.161c0,1.292-.421,1.8-1.5,1.8a2.546,2.546,0,0,1-2.037-1.018A.023.023,0,0,0,5.072,16.585Zm9.7-4.931c-.984,0-1.484.54-1.484,1.605v5.524c0,1.1.483,1.606,1.519,1.606h.346c.962,0,1.449-.54,1.449-1.606V13.259c0-1.11-.458-1.605-1.484-1.605Zm.156-4A1.536,1.536,0,0,0,13.185,9.2c0,.969.687,1.57,1.794,1.57A1.543,1.543,0,0,0,16.723,9.2C16.723,8.244,16.035,7.649,14.927,7.649Zm7.26,10.357a1.835,1.835,0,0,1-1.864-1.968,2.007,2.007,0,0,1,.524-1.4,1.88,1.88,0,0,1,3.2,1.419,2,2,0,0,1-.531,1.4A1.822,1.822,0,0,1,22.188,18.006Z" transform="translate(0 0)"/></g></svg>