
<svg xmlns="http://www.w3.org/2000/svg" width="115.368" height="23.952" viewBox="0 0 115.368 23.952"><defs><style>.a{fill:#a4009d;}</style></defs><path class="a" d="M7.584.336a15.532,15.532,0,0,1-3.96-.5A9.74,9.74,0,0,1,.5-1.512l1.56-3.5a10.094,10.094,0,0,0,2.616,1.2,9.958,9.958,0,0,0,2.928.456q2.736,0,2.736-1.368A1.133,1.133,0,0,0,9.564-5.8a14.344,14.344,0,0,0-2.508-.732A23.938,23.938,0,0,1,3.888-7.4,5.332,5.332,0,0,1,1.7-8.9a4.053,4.053,0,0,1-.912-2.784,4.82,4.82,0,0,1,.84-2.772A5.621,5.621,0,0,1,4.14-16.416a10.323,10.323,0,0,1,4.092-.72,14.435,14.435,0,0,1,3.264.372,10,10,0,0,1,2.832,1.092l-1.464,3.528a9.78,9.78,0,0,0-4.656-1.3,3.9,3.9,0,0,0-2.064.42A1.259,1.259,0,0,0,5.5-11.928a1.083,1.083,0,0,0,.768,1.008,13.886,13.886,0,0,0,2.472.7,23.158,23.158,0,0,1,3.18.876A5.491,5.491,0,0,1,14.1-7.86a3.974,3.974,0,0,1,.924,2.772,4.725,4.725,0,0,1-.84,2.736A5.726,5.726,0,0,1,11.664-.4,10.193,10.193,0,0,1,7.584.336Zm16.632-13.56a6.4,6.4,0,0,1,3.228.828,6.033,6.033,0,0,1,2.3,2.352A7.134,7.134,0,0,1,30.6-6.5a7.134,7.134,0,0,1-.852,3.54,6.033,6.033,0,0,1-2.3,2.352,6.4,6.4,0,0,1-3.228.828,4.849,4.849,0,0,1-3.624-1.368V4.656h-4.56V-13.008h4.344v1.3A4.735,4.735,0,0,1,24.216-13.224Zm-.96,9.816a2.565,2.565,0,0,0,1.968-.828A3.205,3.205,0,0,0,25.992-6.5a3.205,3.205,0,0,0-.768-2.268A2.565,2.565,0,0,0,23.256-9.6a2.565,2.565,0,0,0-1.968.828A3.205,3.205,0,0,0,20.52-6.5a3.205,3.205,0,0,0,.768,2.268A2.565,2.565,0,0,0,23.256-3.408Zm8.5-9.6h4.56V0h-4.56Zm2.28-1.44a2.887,2.887,0,0,1-2.016-.7,2.238,2.238,0,0,1-.768-1.728,2.238,2.238,0,0,1,.768-1.728,2.887,2.887,0,0,1,2.016-.7,2.985,2.985,0,0,1,2.016.66,2.13,2.13,0,0,1,.768,1.692,2.327,2.327,0,0,1-.768,1.788A2.857,2.857,0,0,1,34.032-14.448Zm12.744,1.224a5.346,5.346,0,0,1,3.9,1.44A5.815,5.815,0,0,1,52.152-7.44V0h-4.56V-6.7q0-2.664-2.136-2.664a2.439,2.439,0,0,0-1.884.768,3.3,3.3,0,0,0-.708,2.3V0H38.3V-13.008h4.344v1.416A5.169,5.169,0,0,1,44.472-12.8,6.179,6.179,0,0,1,46.776-13.224ZM66.264-3.768V0H53.184V-2.976l6.288-5.88A6.009,6.009,0,0,0,60.7-10.332a2.7,2.7,0,0,0,.312-1.236,1.559,1.559,0,0,0-.552-1.272,2.47,2.47,0,0,0-1.608-.456,3.561,3.561,0,0,0-1.716.42,3.446,3.446,0,0,0-1.284,1.212L52.32-13.632A6.9,6.9,0,0,1,55.08-16.2a8.89,8.89,0,0,1,4.2-.936,8.658,8.658,0,0,1,3.4.624,5.26,5.26,0,0,1,2.3,1.788,4.538,4.538,0,0,1,.828,2.7,5.835,5.835,0,0,1-.588,2.58A9.888,9.888,0,0,1,62.952-6.7L59.784-3.768ZM93.408-16.8v9.816A7.055,7.055,0,0,1,91.38-1.548,8.1,8.1,0,0,1,85.656.336,9.189,9.189,0,0,1,82.668-.12a6.249,6.249,0,0,1-2.244-1.3A6.249,6.249,0,0,1,78.18-.12a9.27,9.27,0,0,1-3.012.456,8.072,8.072,0,0,1-5.712-1.9,7.04,7.04,0,0,1-2.04-5.424V-16.8h4.752v9.672A4.058,4.058,0,0,0,72.9-4.464a2.717,2.717,0,0,0,2.2.864,2.717,2.717,0,0,0,2.2-.864,4.058,4.058,0,0,0,.732-2.664V-16.8h4.752v9.672a4.012,4.012,0,0,0,.744,2.664,2.785,2.785,0,0,0,2.232.864,2.681,2.681,0,0,0,2.184-.864,4.107,4.107,0,0,0,.72-2.664V-16.8Zm2.064,3.792h4.56V0h-4.56Zm2.28-1.44a2.887,2.887,0,0,1-2.016-.7,2.238,2.238,0,0,1-.768-1.728,2.238,2.238,0,0,1,.768-1.728,2.887,2.887,0,0,1,2.016-.7,2.985,2.985,0,0,1,2.016.66,2.13,2.13,0,0,1,.768,1.692,2.327,2.327,0,0,1-.768,1.788A2.857,2.857,0,0,1,97.752-14.448ZM110.5-13.224a5.346,5.346,0,0,1,3.9,1.44,5.815,5.815,0,0,1,1.476,4.344V0h-4.56V-6.7q0-2.664-2.136-2.664a2.439,2.439,0,0,0-1.884.768,3.3,3.3,0,0,0-.708,2.3V0h-4.56V-13.008h4.344v1.416a5.169,5.169,0,0,1,1.824-1.212A6.179,6.179,0,0,1,110.5-13.224Z" transform="translate(-0.504 19.296)"/></svg>